<svg width="32" height="32" viewBox="0 0 32 32" fill="none" xmlns="http://www.w3.org/2000/svg">
<path d="M21.5135 17.2972L18.7896 16.0865C18.5972 16.001 18.4729 15.8097 18.4729 15.5992V14.8512C19.3879 14.1221 19.976 12.9995 19.976 11.7413V10.6884C20.2775 10.5218 20.477 10.2 20.477 9.83945V9.73726C20.477 7.54501 18.6935 5.76144 16.5012 5.76144H15.4992C13.3069 5.76144 11.5234 7.54501 11.5234 9.73726V10.6645C11.5234 10.9813 11.6598 11.2684 11.8974 11.4521C11.9378 11.4832 11.9802 11.5106 12.0244 11.5343V11.7413C12.0244 12.9994 12.6124 14.1221 13.5274 14.8511V15.5992C13.5274 15.8097 13.4031 16.001 13.2107 16.0865L10.4868 17.2971C9.59475 17.6935 9.01831 18.5805 9.01831 19.5567V25.7695C9.01831 26.0284 9.22819 26.2382 9.48706 26.2382C9.74594 26.2382 9.95581 26.0284 9.95581 25.7695V19.5568C9.95581 19.5025 9.95969 19.4488 9.96531 19.3955L11.2204 20.6507C11.4158 20.846 11.5234 21.1057 11.5234 21.382V25.7695C11.5234 26.0284 11.7333 26.2383 11.9921 26.2383C12.251 26.2383 12.4609 26.0284 12.4609 25.7695V21.382C12.4609 20.8553 12.2558 20.3602 11.8834 19.9878L10.3871 18.4914C10.5219 18.3515 10.6836 18.2356 10.8676 18.1538L13.5456 16.9636L15.5315 18.9495V25.7695C15.5315 26.0284 15.7414 26.2382 16.0003 26.2382C16.2591 26.2382 16.469 26.0284 16.469 25.7695V18.9496L18.455 16.9637L21.1328 18.1538C21.3168 18.2356 21.4786 18.3515 21.6134 18.4915L20.1171 19.9878C19.7447 20.3602 19.5396 20.8553 19.5396 21.382V25.7695C19.5396 26.0284 19.7495 26.2383 20.0083 26.2383C20.2672 26.2383 20.4771 26.0284 20.4771 25.7695V21.382C20.4771 21.1058 20.5847 20.846 20.78 20.6507L22.0351 19.3956C22.0407 19.4488 22.0446 19.5024 22.0446 19.5567V25.7695C22.0446 26.0284 22.2545 26.2382 22.5134 26.2382C22.7722 26.2382 22.9821 26.0284 22.9821 25.7695V19.5568C22.9819 18.5806 22.4055 17.6936 21.5135 17.2972ZM16.0001 18.0925L14.2575 16.3499C14.39 16.127 14.4648 15.869 14.4648 15.5992V15.4085C14.9375 15.6071 15.4562 15.7172 16.0001 15.7172C16.5441 15.7172 17.0627 15.6072 17.5353 15.4085V15.5992C17.5353 15.8691 17.6101 16.127 17.7427 16.35L16.0001 18.0925ZM16.0001 14.7796C14.3248 14.7796 12.9618 13.4166 12.9618 11.7413V11.5305C13.2543 11.4146 13.5398 11.2301 13.8131 10.9779C14.0033 10.8023 14.0153 10.5058 13.8396 10.3155C13.6641 10.1253 13.3676 10.1134 13.1773 10.289C12.9428 10.5054 12.7086 10.6452 12.4812 10.7046C12.4757 10.706 12.4716 10.7066 12.4688 10.7069C12.4654 10.7003 12.4608 10.6866 12.4608 10.6645V9.73733C12.4608 8.06201 13.8238 6.69901 15.4991 6.69901H16.5011C18.1765 6.69901 19.5395 8.06201 19.5395 9.73733V9.83951C19.5395 9.8547 19.5303 9.86789 19.5183 9.87026C16.7114 10.4246 15.3035 9.37983 14.8285 8.90483C14.6455 8.72176 14.3486 8.72176 14.1656 8.90483C13.9826 9.08789 13.9826 9.3847 14.1656 9.5677C15.6213 11.0233 17.7453 11.0496 19.0385 10.8942V11.7413C19.0385 13.4166 17.6755 14.7796 16.0001 14.7796Z" fill="#00C2FF"/>
<path d="M8.45264 14.7477V13.7455C8.45264 12.5226 7.81714 11.4461 6.85958 10.8266C6.9187 10.6369 6.94958 10.4383 6.94958 10.2384C6.94958 9.1512 6.06507 8.26669 4.97782 8.26669C3.89057 8.26669 3.00607 9.15126 3.00607 10.2384C3.00607 10.4408 3.03669 10.6375 3.09594 10.8268C2.13844 11.4462 1.503 12.5227 1.503 13.7455V14.7475C1.503 15.9317 2.09882 16.9788 3.00601 17.6065V18.6373C3.00601 18.8406 2.89307 19.0233 2.71126 19.1143L1.08994 19.9249C0.417626 20.2612 0 20.9369 0 21.6886V25.7698C0 26.0287 0.209875 26.2385 0.468751 26.2385C0.727626 26.2385 0.937502 26.0287 0.937502 25.7698V21.8913L1.70113 22.655C1.89644 22.8503 2.00407 23.11 2.00407 23.3863V25.7698C2.00407 26.0287 2.21394 26.2385 2.47282 26.2385C2.73169 26.2385 2.94157 26.0287 2.94157 25.7698V23.3863C2.94157 22.8597 2.73644 22.3645 2.36407 21.9921L1.30125 20.9293C1.29613 20.9242 1.29063 20.9197 1.28538 20.9149C1.35207 20.856 1.42688 20.8048 1.50925 20.7635L3.13057 19.9529C3.21363 19.9113 3.29094 19.8623 3.36301 19.8078L4.50907 20.9539V25.7699C4.50907 26.0287 4.71895 26.2386 4.97782 26.2386C5.2367 26.2386 5.44657 26.0287 5.44657 25.7699V20.9538L6.5927 19.8077C6.66483 19.8623 6.74208 19.9113 6.82514 19.9528L7.2722 20.1764C7.33951 20.2101 7.41101 20.226 7.48151 20.226C7.65345 20.226 7.81901 20.131 7.90114 19.9668C8.01695 19.7353 7.92308 19.4537 7.69151 19.338L7.24445 19.1144C7.06258 19.0235 6.94964 18.8407 6.94964 18.6375V17.6066C7.85683 16.979 8.45264 15.9318 8.45264 14.7477ZM4.97782 9.20419C5.54814 9.20419 6.01207 9.6682 6.01207 10.2384C6.01207 10.3013 6.00645 10.3628 5.9957 10.4231C5.67357 10.3243 5.33188 10.2707 4.97782 10.2707C4.62426 10.2707 4.28301 10.3241 3.96138 10.4227C3.95057 10.3624 3.94357 10.3011 3.94357 10.2384C3.94357 9.66813 4.40751 9.20419 4.97782 9.20419ZM4.97782 11.2083C6.37689 11.2083 7.51514 12.3465 7.51514 13.7456V13.9155C5.56357 14.513 4.40051 13.0284 4.35082 12.9633C4.26926 12.8546 4.14457 12.7866 4.00907 12.777C3.87357 12.7675 3.74044 12.8171 3.64438 12.9131C3.19694 13.3606 2.75869 13.5764 2.44219 13.6806C2.47688 12.3115 3.60057 11.2083 4.97782 11.2083ZM4.97782 20.0967L3.89463 19.0135C3.92626 18.8927 3.94357 18.7667 3.94357 18.6373V18.0651C4.27038 18.1673 4.61782 18.2223 4.97782 18.2223C5.33782 18.2223 5.68526 18.1673 6.01207 18.0651V18.6373C6.01207 18.7667 6.02939 18.8927 6.06101 19.0135L4.97782 20.0967ZM4.97782 17.2848C3.57876 17.2848 2.4405 16.1466 2.4405 14.7475V14.6504C2.81432 14.5645 3.36857 14.365 3.94676 13.9C4.15132 14.093 4.4437 14.3297 4.81601 14.5328C5.25639 14.773 5.86457 14.9951 6.60745 14.9951C6.88976 14.9951 7.19183 14.9623 7.51114 14.887C7.43845 16.2215 6.33007 17.2848 4.97782 17.2848Z" fill="#00C2FF"/>
<path d="M30.9101 18.9228L28.2867 17.6111C28.1049 17.5201 27.992 17.3374 27.992 17.1341V16.4698C28.606 15.9246 28.994 15.1301 28.994 14.2464V13.7128C29.0048 13.7128 29.0154 13.7131 29.0262 13.7131C29.2851 13.7131 29.495 13.5032 29.495 13.2444V12.2424C29.495 10.6026 28.1609 9.26855 26.5212 9.26855H25.5192C23.8794 9.26855 22.5453 10.6026 22.5453 12.2424V13.2444C22.5453 13.5032 22.7552 13.7131 23.0141 13.7131C23.018 13.7131 23.0292 13.713 23.0463 13.7123V14.2464C23.0463 15.1302 23.4343 15.9247 24.0484 16.4699V17.1342C24.0484 17.3375 23.9355 17.5203 23.7536 17.6111C23.522 17.7269 23.4282 18.0084 23.544 18.24C23.6261 18.4043 23.7917 18.4993 23.9636 18.4993C24.034 18.4993 24.1055 18.4833 24.1729 18.4497C24.2559 18.4081 24.3332 18.3591 24.4053 18.3046L25.5514 19.4507V25.7696C25.5514 26.0285 25.7613 26.2384 26.0202 26.2384C26.279 26.2384 26.4889 26.0285 26.4889 25.7696V19.4506L27.635 18.3044C27.7071 18.359 27.7844 18.4081 27.8674 18.4496L30.4059 19.7188L29.6359 20.4888C29.2635 20.8612 29.0584 21.3563 29.0584 21.883V25.7695C29.0584 26.0284 29.2683 26.2383 29.5272 26.2383C29.7861 26.2383 29.9959 26.0284 29.9959 25.7695V21.883C29.9959 21.6068 30.1035 21.347 30.2989 21.1516L31.0282 20.4223C31.0503 20.5071 31.0624 20.5956 31.0624 20.6863V25.7695C31.0624 26.0284 31.2723 26.2383 31.5312 26.2383C31.7901 26.2383 31.9999 26.0284 31.9999 25.7695V20.6863C32 19.9347 31.5824 19.2589 30.9101 18.9228ZM23.4828 12.6792V12.2423H23.4829C23.4829 11.1195 24.3964 10.206 25.5192 10.206H26.5212C27.644 10.206 28.5575 11.1195 28.5575 12.2423V12.763C26.5198 12.6531 25.2901 11.8601 25.2782 11.8523C25.1989 11.7994 25.1084 11.7736 25.0183 11.7736C24.8973 11.7736 24.7773 11.8203 24.6867 11.9109C24.2382 12.3594 23.7987 12.5752 23.4828 12.6792ZM26.0202 18.5935L24.937 17.5103C24.9686 17.3894 24.9859 17.2634 24.9859 17.1341V17.0343C25.3082 17.1543 25.6566 17.2201 26.0202 17.2201C26.3837 17.2201 26.7322 17.1543 27.0544 17.0343V17.1341C27.0544 17.2634 27.0717 17.3894 27.1034 17.5103L26.0202 18.5935ZM26.0202 16.2827C24.8974 16.2827 23.9839 15.3693 23.9839 14.2464V13.4907C24.3122 13.3595 24.6947 13.1509 25.0839 12.8193C25.5762 13.0754 26.606 13.5181 28.0565 13.6644V14.2464C28.0565 15.3692 27.143 16.2827 26.0202 16.2827Z" fill="#00C2FF"/>
</svg>
