<svg width="18" height="18" viewBox="0 0 18 18" fill="none" xmlns="http://www.w3.org/2000/svg">
<g clip-path="url(#clip0)">
<path d="M17.366 10.4196C17.903 5.8994 17.108 3.04565 15.674 1.7549L15.6748 1.75415C13.3603 -0.450104 5.54377 -0.776354 2.77477 1.85315C1.53127 3.1394 1.09327 5.02715 1.04527 7.36415C0.99727 9.7019 0.94027 14.0811 5.02102 15.2691H5.02477L5.02102 17.0834C5.02102 17.0834 4.99327 17.8184 5.46277 17.9661C5.99977 18.1401 6.24277 17.7989 7.91302 15.8039C10.706 16.0461 12.851 15.4911 13.0948 15.4101C13.6588 15.2211 16.85 14.7989 17.366 10.4196ZM8.18827 14.5274C8.18827 14.5274 6.42052 16.7316 5.87077 17.3039C5.69077 17.4899 5.49352 17.4726 5.49652 17.1036C5.49652 16.8614 5.51002 14.0916 5.51002 14.0916C2.05027 13.1001 2.25427 9.37115 2.29177 7.4204C2.32927 5.4689 2.68627 3.87065 3.73927 2.7944C6.16852 0.516646 13.0213 1.0259 14.7673 2.6669C16.9018 4.55915 16.142 9.90515 16.1465 10.0874C15.7078 13.7429 13.1218 13.9746 12.6463 14.1329C12.443 14.2004 10.5568 14.6856 8.18827 14.5274V14.5274Z" fill="white"/>
<path d="M9.16633 3.22266C8.87758 3.22266 8.87758 3.67266 9.16633 3.67641C11.4066 3.69366 13.2516 5.25516 13.2718 8.11941C13.2718 8.42166 13.7143 8.41791 13.7106 8.11566H13.7098C13.6858 5.02941 11.6713 3.23991 9.16633 3.22266V3.22266Z" fill="white"/>
<path d="M12.1133 7.64502C12.1065 7.94352 12.5483 7.95777 12.552 7.65552C12.5888 5.95377 11.5395 4.55202 9.56775 4.40427C9.279 4.38327 9.249 4.83702 9.537 4.85802C11.247 4.98777 12.1478 6.15477 12.1133 7.64502V7.64502Z" fill="white"/>
<path d="M11.6409 9.58058C11.2704 9.36608 10.8931 9.49958 10.7371 9.71033L10.4109 10.1326C10.2451 10.3471 9.93539 10.3186 9.93539 10.3186C7.67489 9.72083 7.07039 7.35533 7.07039 7.35533C7.07039 7.35533 7.04264 7.03508 7.24964 6.86333L7.65764 6.52583C7.86164 6.36383 7.99064 5.97383 7.78289 5.59058C7.22789 4.58783 6.85514 4.24208 6.66539 3.97658C6.46589 3.72683 6.16589 3.67058 5.85389 3.83933H5.84714C5.19839 4.21883 4.48815 4.92908 4.7154 5.66033C5.10314 6.43133 5.81564 8.88908 8.08664 10.7461C9.15389 11.6243 10.8429 12.5243 11.5599 12.7321L11.5666 12.7426C12.2731 12.9781 12.9601 12.2401 13.3269 11.5718V11.5666C13.4896 11.2433 13.4356 10.9373 13.1979 10.7371C12.7764 10.3261 12.1404 9.87233 11.6409 9.58058Z" fill="white"/>
<path d="M9.87667 6.07825C10.5974 6.12025 10.9469 6.49676 10.9844 7.27001C10.9979 7.57226 11.4367 7.55126 11.4232 7.24901C11.3752 6.23951 10.8487 5.677 9.90067 5.6245C9.61192 5.60725 9.58492 6.061 9.87667 6.07825V6.07825Z" fill="white"/>
</g>
<defs>
<clipPath id="clip0">
<rect width="18" height="18" fill="white"/>
</clipPath>
</defs>
</svg>
