<svg width="18" height="18" viewBox="0 0 18 18" fill="none" xmlns="http://www.w3.org/2000/svg">
<g clip-path="url(#clip0)">
<path d="M17.8394 13.0253C17.7911 12.9443 17.4918 12.294 16.0517 10.9574C14.5441 9.55776 14.7466 9.78503 16.5625 7.36498C17.6684 5.89112 18.1106 4.99105 17.9722 4.60627C17.8406 4.23949 17.0271 4.33625 17.0271 4.33625L14.3224 4.352C14.3224 4.352 14.1222 4.325 13.9725 4.41388C13.8274 4.50164 13.734 4.70415 13.734 4.70415C13.734 4.70415 13.3054 5.84499 12.7338 6.81481C11.5288 8.86134 11.0462 8.96935 10.8493 8.84221C10.3914 8.54631 10.5061 7.65187 10.5061 7.01733C10.5061 5.0338 10.8065 4.20687 9.91997 3.9931C9.6252 3.92222 9.40918 3.87497 8.6565 3.86709C7.69118 3.85697 6.87324 3.87047 6.41083 4.09661C6.10256 4.24737 5.86516 4.58377 6.0103 4.6029C6.18919 4.62652 6.59422 4.71203 6.80911 5.00455C7.08701 5.38145 7.07688 6.22977 7.07688 6.22977C7.07688 6.22977 7.23664 8.56432 6.70448 8.85459C6.33882 9.05373 5.83816 8.64757 4.76371 6.79006C4.21354 5.83936 3.79726 4.78741 3.79726 4.78741C3.79726 4.78741 3.71738 4.59165 3.57449 4.48701C3.40123 4.35988 3.15821 4.31938 3.15821 4.31938L0.586265 4.33513C0.586265 4.33513 0.200361 4.34638 0.0586001 4.51401C-0.0674094 4.66365 0.0484744 4.97192 0.0484744 4.97192C0.0484744 4.97192 2.06238 9.68265 4.3418 12.0577C6.43333 14.2347 8.80726 14.0919 8.80726 14.0919H9.88284C9.88284 14.0919 10.208 14.0558 10.3734 13.877C10.5264 13.7127 10.5208 13.4044 10.5208 13.4044C10.5208 13.4044 10.4994 11.9609 11.1699 11.7483C11.8304 11.539 12.6787 13.1434 13.5776 13.7611C14.2572 14.228 14.7736 14.1256 14.7736 14.1256L17.1779 14.0919C17.1779 14.0919 18.4357 14.0142 17.8394 13.0253Z" fill="white"/>
</g>
<defs>
<clipPath id="clip0">
<rect width="18" height="18" fill="white"/>
</clipPath>
</defs>
</svg>
