<svg width="27" height="17" viewBox="0 0 27 17" fill="none" xmlns="http://www.w3.org/2000/svg">
<path d="M26.7592 14.5379C26.6866 14.4164 26.2377 13.4409 24.0776 11.4361C21.8161 9.33665 22.1199 9.67755 24.8437 6.04746C26.5027 3.83668 27.1659 2.48658 26.9583 1.90941C26.7609 1.35924 25.5407 1.50438 25.5407 1.50438L21.4837 1.528C21.4837 1.528 21.1833 1.4875 20.9588 1.62082C20.7411 1.75246 20.6011 2.05623 20.6011 2.05623C20.6011 2.05623 19.9581 3.76748 19.1008 5.22222C17.2933 8.29201 16.5693 8.45402 16.274 8.26332C15.5871 7.81947 15.7593 6.47781 15.7593 5.52599C15.7593 2.5507 16.2099 1.3103 14.88 0.989651C14.4379 0.883331 14.1138 0.812451 12.9848 0.800637C11.5368 0.785449 10.3099 0.8057 9.61631 1.14491C9.1539 1.37105 8.79781 1.87566 9.01552 1.90434C9.28385 1.93978 9.89139 2.06804 10.2137 2.50683C10.6306 3.07218 10.6154 4.34465 10.6154 4.34465C10.6154 4.34465 10.855 7.84647 10.0568 8.28188C9.5083 8.58059 8.75731 7.97136 7.14563 5.18509C6.32038 3.75904 5.69596 2.18112 5.69596 2.18112C5.69596 2.18112 5.57614 1.88747 5.36181 1.73052C5.10192 1.53982 4.73739 1.47906 4.73739 1.47906L0.879484 1.50269C0.879484 1.50269 0.300629 1.51957 0.0879882 1.77102C-0.101026 1.99548 0.0727996 2.45789 0.0727996 2.45789C0.0727996 2.45789 3.09365 9.52397 6.51277 13.0865C9.65006 16.3521 13.211 16.1378 13.211 16.1378H14.8243C14.8243 16.1378 15.312 16.0838 15.5601 15.8154C15.7896 15.569 15.7812 15.1066 15.7812 15.1066C15.7812 15.1066 15.7491 12.9414 16.755 12.6225C17.7456 12.3086 19.0181 14.7151 20.3665 15.6416C21.3858 16.342 22.1604 16.1884 22.1604 16.1884L25.7669 16.1378C25.7669 16.1378 27.6536 16.0213 26.7592 14.5379Z" fill="white"/>
</svg>
