<svg width="24" height="24" viewBox="0 0 24 24" fill="none" xmlns="http://www.w3.org/2000/svg">
<path d="M20.4338 3.48523C18.1793 1.23907 15.18 0.00128174 11.9879 0C8.80298 0 5.79895 1.23669 3.52954 3.4823C1.2561 5.73175 0.00292969 8.72113 0 11.8889V11.8925V11.8947C0.000366211 13.812 0.504089 15.7462 1.46027 17.5117L0.0327759 24L6.59583 22.5071C8.25806 23.3448 10.1127 23.7865 11.9833 23.7872H11.9881C15.1725 23.7872 18.1765 22.5504 20.4463 20.3046C22.7217 18.0533 23.9755 15.0677 23.9769 11.898C23.9778 8.75061 22.7197 5.76288 20.4338 3.48523V3.48523ZM11.9879 21.9141H11.9837C10.3041 21.9133 8.63983 21.4916 7.17114 20.6942L6.86078 20.5258L2.49664 21.5184L3.44458 17.2103L3.26184 16.8951C2.35327 15.3283 1.87317 13.5987 1.87317 11.8927C1.87665 6.37079 6.41364 1.87317 11.9875 1.87317C14.6803 1.87427 17.2104 2.91815 19.1118 4.81219C21.0419 6.73553 22.1045 9.25177 22.1036 11.8975C22.1014 17.4207 17.5635 21.9141 11.9879 21.9141V21.9141Z" fill="white"/>
<path d="M8.72589 6.6499H8.20038C8.01746 6.6499 7.72046 6.71838 7.46924 6.99176C7.21783 7.26532 6.5094 7.92651 6.5094 9.27124C6.5094 10.616 7.49213 11.9153 7.62909 12.0978C7.76624 12.2802 9.52606 15.1279 12.3133 16.2234C14.6298 17.1338 15.1013 16.9527 15.6039 16.9071C16.1067 16.8617 17.2264 16.2461 17.4549 15.608C17.6834 14.9698 17.6834 14.4227 17.6149 14.3085C17.5463 14.1946 17.3633 14.1263 17.0892 13.9897C16.8149 13.8529 15.4709 13.1805 15.2195 13.0892C14.9681 12.9982 14.7854 12.9526 14.6025 13.2263C14.4196 13.4995 13.881 14.1316 13.721 14.314C13.5612 14.4965 13.4011 14.5194 13.1268 14.3826C12.8525 14.2455 11.9784 13.9518 10.9308 13.0209C10.1155 12.2963 9.54968 11.3724 9.38965 11.0988C9.2298 10.8254 9.37262 10.6775 9.51013 10.5411C9.63336 10.4188 9.7998 10.2514 9.93695 10.0919C10.0739 9.93225 10.1129 9.81836 10.2045 9.63599C10.2958 9.45361 10.2501 9.29395 10.1816 9.15735C10.1129 9.02057 9.58667 7.66907 9.34277 7.12854H9.34296C9.13751 6.67334 8.92126 6.65796 8.72589 6.6499V6.6499Z" fill="white"/>
</svg>
