<svg width="26" height="18" viewBox="0 0 26 18" fill="none" xmlns="http://www.w3.org/2000/svg">
<path d="M24.895 1.785C24.1897 0.5305 23.4244 0.29975 21.866 0.212C20.3093 0.106375 16.3946 0.0625 13.0032 0.0625C9.60537 0.0625 5.68912 0.106375 4.134 0.210375C2.57887 0.29975 1.81187 0.528875 1.10012 1.785C0.37375 3.03787 0 5.19588 0 8.99513C0 8.99838 0 9 0 9C0 9.00325 0 9.00488 0 9.00488V9.00813C0 12.7911 0.37375 14.9654 1.10012 16.2053C1.81187 17.4598 2.57725 17.6873 4.13237 17.7929C5.68912 17.8839 9.60537 17.9375 13.0032 17.9375C16.3946 17.9375 20.3092 17.8839 21.8676 17.7945C23.426 17.6889 24.1914 17.4614 24.8966 16.2069C25.6295 14.967 26 12.7927 26 9.00975C26 9.00975 26 9.00488 26 9.00163C26 9.00163 26 8.99838 26 8.99675C26 5.19588 25.6295 3.03787 24.895 1.785ZM9.75 13.875V4.125L17.875 9L9.75 13.875Z" fill="white"/>
</svg>
