<svg width="103" height="91" viewBox="0 0 103 91" fill="none" xmlns="http://www.w3.org/2000/svg">
<path d="M44.181 43.1532C40.9244 44.8388 38.8759 45.2602 38.1406 44.6808C36.9325 45.7343 36.6699 46.6825 37.0375 46.7352C42.2901 47.3673 49.5385 40.0452 59.7809 41.8889C58.3628 43.5219 57.3648 45.4709 57.1547 46.4718C60.0436 45.1549 61.5143 42.9951 63.9829 40.1506C56.0517 38.623 52.585 39.4658 47.7527 41.4675L48.5406 35.7257C57.5749 33.3026 62.985 37.6221 62.985 37.6221C62.985 37.6221 65.3486 24.9797 58.3628 12.706C55.6315 7.91241 53.3203 5.69999 53.0577 1.95994C52.9527 0.432315 52.4274 1.11711 52.2173 2.17065C52.0072 3.27686 50.1688 13.6542 50.1688 13.6542C48.1204 18.6585 41.5547 28.5617 34.0961 34.8302C34.0436 34.8302 34.0436 34.8829 33.9911 34.8829C35.4093 35.3043 39.086 37.7801 44.181 43.1532ZM52.9527 5.9107C61.5668 17.3942 61.6193 31.0375 60.989 35.5677C53.3729 32.0384 46.5446 33.6187 45.5466 34.2508C51.3244 25.1904 52.9527 5.9107 52.9527 5.9107ZM36.88 34.4088C43.6557 28.2456 49.2759 18.5004 49.2759 18.5004C47.5426 27.7716 45.5991 32.3018 42.3951 38.9917C40.8194 37.3587 38.5608 35.2517 36.88 34.4088Z" fill="white"/>
<path d="M4.26189 63.1711C3.26391 62.4336 2.89623 62.0649 2.73866 61.8542C2.58108 61.5908 2.47603 61.3801 2.47603 61.1167C2.47603 60.8006 2.68613 60.4846 3.05381 60.2212C3.47401 59.9051 3.94674 59.7471 4.52451 59.7471C5.04976 59.7471 5.41744 59.8525 5.78512 60.1685C6.10027 60.4319 6.25784 60.748 6.25784 61.2747C6.25784 61.4328 6.31037 61.6435 6.52047 61.8542C6.73057 62.0649 6.94067 62.1176 7.04572 62.1176C7.20329 62.1176 7.83359 62.0649 7.83359 61.1167C7.83359 60.9587 7.78107 60.8533 7.78107 60.8006C7.78107 60.5899 7.78107 60.4319 7.78107 60.2739C7.78107 60.1685 7.78107 60.0632 7.78107 60.0105C7.78107 59.4837 7.36087 59.0096 6.57299 58.6936C5.89017 58.3775 5.20734 58.2195 4.57704 58.2195C3.47401 58.2195 2.47603 58.5355 1.68816 59.1677C0.795229 59.7998 0.375027 60.6426 0.375027 61.5908C0.375027 62.1702 0.532602 62.7497 0.795228 63.1711C1.05785 63.6452 1.373 64.0139 1.74068 64.33C2.10836 64.646 2.58108 65.0148 3.21138 65.4889C4.68209 66.5424 5.57502 67.2799 5.89017 67.754C6.20532 68.1754 6.36289 68.5968 6.36289 68.9128C6.36289 69.545 6.15279 70.0191 5.68007 70.3878C5.20734 70.8092 4.62956 70.9672 3.94674 70.9672C3.26391 70.9672 2.68613 70.8092 2.31846 70.4405C1.95078 70.0717 1.74068 69.5976 1.63563 68.9655C1.5831 68.07 1.00533 67.9647 0.795228 67.9647C0.322502 67.9647 0.0598755 68.2281 0.0598755 68.6495C0.0598755 68.7021 0.0598767 68.8602 0.112402 69.0182C0.112402 69.1762 0.164926 69.2816 0.164926 69.4396C0.164926 69.7557 0.164927 70.0717 0.112402 70.2824C0.112402 70.5458 0.0598755 70.7039 0.0598755 70.8092C0.0598755 71.494 0.847753 71.8627 1.47805 72.1261C2.31846 72.4422 3.10633 72.6002 3.89421 72.6002C4.99724 72.6002 6.04774 72.2315 7.04572 71.5994C8.0437 70.9146 8.51642 69.9137 8.51642 68.6495C8.51642 67.754 8.20127 66.9111 7.6235 66.121C7.09824 65.3308 5.99522 64.3827 4.26189 63.1711Z" fill="white"/>
<path d="M19.3367 58.1133C17.9185 58.1133 16.6579 58.4293 15.5549 59.0615C14.4519 59.6936 13.6115 60.5891 13.0337 61.6953C12.4559 62.8015 12.1407 63.9604 12.1407 65.0666C12.1407 67.2264 12.8236 69.0174 14.1367 70.4396C15.5024 71.8619 17.1832 72.5467 19.2316 72.5467C20.4397 72.5467 21.6478 72.2833 22.7508 71.8092C23.8539 71.3351 24.7993 70.4923 25.4821 69.3334C26.165 68.1745 26.5326 66.8576 26.5326 65.488C26.5326 63.5917 25.9023 61.8533 24.6417 60.3784C23.3286 58.9034 21.5428 58.1133 19.3367 58.1133ZM19.2842 71.0718C16.2377 71.0718 14.7145 69.1227 14.7145 65.1193C14.7145 63.6443 15.1347 62.3274 15.9751 61.2212C16.8155 60.1677 17.9185 59.6409 19.3367 59.6409C20.7549 59.6409 21.8054 60.1677 22.6458 61.1685C23.4862 62.2221 23.9064 63.8024 23.9064 65.8041C23.9064 66.963 23.7488 67.9112 23.4337 68.596C23.1185 69.2808 22.6458 69.8602 21.9104 70.2816C21.2276 70.8084 20.3347 71.0718 19.2842 71.0718Z" fill="white"/>
<path d="M43.5506 70.8085C43.288 70.7558 43.1304 70.7031 43.0779 70.5978C42.9729 70.4397 42.9729 70.2817 42.9729 70.1237V60.7472C42.9729 60.4312 43.0254 60.3258 42.9729 60.3258C42.9729 60.3258 43.0254 60.2205 43.2355 60.0097C43.3405 59.9044 43.4981 59.8517 43.6557 59.8517C44.286 59.8517 44.4961 59.483 44.4961 59.1669C44.4961 58.7982 44.286 58.4294 43.6557 58.4294C43.6032 58.4294 43.4981 58.4294 43.288 58.4821C43.1304 58.5348 43.0254 58.5348 42.9729 58.5348C42.8678 58.5348 42.7628 58.5348 42.5527 58.4821C42.3426 58.4294 42.185 58.4294 42.0799 58.4294C41.8173 58.4294 41.6072 58.5348 41.3446 58.6928C41.1345 58.8509 40.9244 59.1669 40.6618 59.641C39.9264 61.0633 38.7183 63.4337 36.88 66.8577L33.2557 59.5357C33.0981 59.1669 32.9406 58.9035 32.8355 58.7982C32.5729 58.4821 32.2577 58.4294 31.68 58.5875C31.3123 58.6928 31.3648 58.6928 30.9971 58.5875C30.5244 58.4821 30.2093 58.4821 29.8941 58.6401C29.6315 58.7982 29.5264 59.0616 29.5264 59.1669C29.5264 59.3776 29.6315 59.5883 29.7891 59.7464C29.9466 59.9044 30.1567 59.9571 30.5769 60.0097C30.787 60.0624 30.9446 60.1151 31.0497 60.2205C31.1547 60.3258 31.2072 60.4838 31.2072 60.6419V70.1237C31.2072 70.7558 30.9446 70.8085 30.682 70.8085C30.4194 70.8085 30.2093 70.8612 29.9992 70.9665C29.684 71.1772 29.6315 71.3879 29.6315 71.546C29.6315 71.704 29.684 71.9147 29.9466 72.1254C30.1567 72.2834 30.3668 72.3361 30.6295 72.3361C30.787 72.3361 31.0497 72.2834 31.3648 72.2308C31.68 72.1781 31.8901 72.1254 32.0476 72.1254C32.1527 72.1254 32.3103 72.1254 32.6779 72.2308C33.1507 72.3361 33.3082 72.3361 33.3608 72.3361C34.2537 72.3361 34.3587 71.8094 34.3587 71.5986C34.3587 71.3879 34.2537 70.8085 33.2557 70.8085C33.1507 70.8085 33.0456 70.7558 32.888 70.6505C32.7305 70.5451 32.7305 70.4398 32.7305 70.3871V63.4864L35.7769 69.5442C35.987 70.0183 36.3022 70.071 36.5123 70.071C36.7224 70.071 36.8799 69.9657 36.985 69.913C37.0375 69.8603 37.0901 69.7549 37.1426 69.6496C37.1951 69.5969 37.4052 69.1228 37.9305 68.2273C38.4032 67.3318 38.9284 66.331 39.5587 65.1721L40.6618 63.0123V70.071C40.6618 70.5451 40.6092 70.6505 40.6092 70.6505C40.6092 70.6505 40.5042 70.7558 39.9789 70.8085C39.7688 70.8085 39.5587 70.8612 39.4537 70.9665C39.3486 71.0192 39.1385 71.1772 39.1385 71.546C39.1385 71.704 39.1911 72.3361 40.084 72.3361C40.2941 72.3361 40.6092 72.2834 41.082 72.2308C41.5022 72.1781 41.7648 72.1254 41.9224 72.1254C42.1325 72.1254 42.4476 72.1781 42.8153 72.2308C43.2355 72.2834 43.4981 72.3361 43.6557 72.3361C43.9183 72.3361 44.1284 72.2834 44.286 72.1254C44.4436 71.9674 44.5486 71.8094 44.5486 71.5986C44.5486 71.3879 44.4961 71.2299 44.3385 71.0719C44.286 70.9665 44.0759 70.9138 43.5506 70.8085Z" fill="white"/>
<path d="M61.5144 70.8085C61.2518 70.7558 61.0942 70.7031 61.0417 70.5978C60.9367 70.4397 60.9367 70.2817 60.9367 70.1237V60.7472C60.9367 60.4312 60.9367 60.3258 60.9367 60.3258C60.9367 60.3258 60.9892 60.2205 61.1993 60.0097C61.3043 59.9044 61.4619 59.8517 61.6195 59.8517C62.2498 59.8517 62.4599 59.483 62.4599 59.1669C62.4599 58.7982 62.2498 58.4294 61.6195 58.4294C61.567 58.4294 61.4619 58.4294 61.2518 58.4821C61.0942 58.5348 60.9892 58.5348 60.9367 58.5348C60.8316 58.5348 60.7266 58.5348 60.5165 58.4821C60.3064 58.4294 60.1488 58.4294 60.0437 58.4294C59.7811 58.4294 59.571 58.5348 59.3084 58.6928C59.0983 58.8509 58.8882 59.1669 58.6256 59.641C57.8902 61.0633 56.6821 63.4337 54.8438 66.8577L51.2195 59.5357C51.0619 59.1669 50.9044 58.9035 50.7993 58.7982C50.5367 58.4821 50.2215 58.4294 49.6438 58.5875C49.2761 58.6928 49.3286 58.6928 48.9609 58.5875C48.4882 58.4821 48.1731 58.4821 47.8579 58.6401C47.5953 58.7982 47.4902 59.0616 47.4902 59.1669C47.4902 59.3776 47.5953 59.5883 47.7529 59.7464C47.9104 59.9044 48.1205 59.9571 48.5407 60.0097C48.7508 60.0624 48.9084 60.1151 49.0135 60.2205C49.1185 60.3258 49.171 60.4838 49.171 60.6419V70.1237C49.171 70.7558 48.9084 70.8085 48.6458 70.8085C48.3832 70.8085 48.1731 70.8612 47.963 70.9665C47.6478 71.1772 47.5953 71.3879 47.5953 71.546C47.5953 71.704 47.6478 71.9147 47.9104 72.1254C48.1205 72.2834 48.3306 72.3361 48.5933 72.3361C48.7508 72.3361 49.0135 72.2834 49.3286 72.2308C49.6438 72.1781 49.8539 72.1254 50.0114 72.1254C50.1165 72.1254 50.2741 72.1254 50.6417 72.2308C51.1145 72.3361 51.272 72.3361 51.3246 72.3361C52.2175 72.3361 52.3225 71.8094 52.3225 71.5986C52.3225 71.3879 52.2175 70.8085 51.2195 70.8085C51.1145 70.8085 51.0094 70.7558 50.8518 70.6505C50.6943 70.5451 50.6943 70.4398 50.6943 70.3871V63.4864L53.7407 69.5442C53.9508 70.0183 54.266 70.071 54.4761 70.071C54.6862 70.071 54.8438 69.9657 54.9488 69.913C55.0013 69.8603 55.0539 69.7549 55.1064 69.6496C55.1589 69.5969 55.369 69.1228 55.8943 68.2273C56.367 67.3318 56.8922 66.331 57.5225 65.1721L58.6256 63.0123V70.071C58.6256 70.5451 58.573 70.6505 58.573 70.6505C58.573 70.6505 58.468 70.7558 57.9427 70.8085C57.7326 70.8085 57.5225 70.8612 57.4175 70.9665C57.3124 71.0192 57.1023 71.1772 57.1023 71.546C57.1023 71.704 57.1549 72.3361 58.0478 72.3361C58.2579 72.3361 58.573 72.2834 59.0458 72.2308C59.466 72.1781 59.7286 72.1254 59.8862 72.1254C60.0963 72.1254 60.4114 72.1781 60.7791 72.2308C61.1993 72.2834 61.4619 72.3361 61.6195 72.3361C61.8821 72.3361 62.0922 72.2834 62.2498 72.1254C62.4074 71.9674 62.5124 71.8094 62.5124 71.5986C62.5124 71.3879 62.4599 71.2299 62.3023 71.0719C62.1973 70.9665 62.0397 70.9138 61.5144 70.8085Z" fill="white"/>
<path d="M75.6435 70.3344C75.6435 70.071 75.591 69.8076 75.4334 69.5969C75.2233 69.3335 74.9607 69.2808 74.8031 69.2808C74.6455 69.2808 74.3829 69.3335 74.1728 69.6496C74.0152 69.8603 73.9627 70.1237 73.9627 70.3871C73.9627 70.5451 73.9102 70.6504 73.8051 70.7558C73.7001 70.8612 73.5425 70.9138 73.3324 70.9138H70.1809C69.7607 70.9138 69.6031 70.8612 69.6031 70.8085C69.5506 70.8085 69.5506 70.7031 69.5506 70.4924V64.698C69.5506 64.6453 69.5506 64.6453 69.6031 64.5926C69.7081 64.5399 69.8132 64.5399 69.9708 64.5399H72.3869C72.6496 64.5399 72.7546 64.5926 72.7546 64.5926C72.7546 64.5926 72.8071 64.698 72.8071 64.8033C72.8071 65.0667 72.8597 65.3301 73.0172 65.4881C73.2799 65.8569 73.8576 65.9095 74.1728 65.5408C74.3304 65.3828 74.4354 65.1721 74.4354 64.9614C74.4354 64.9087 74.4354 64.8033 74.3304 64.4346C74.2778 64.2239 74.2778 63.9605 74.2778 63.8025C74.2778 63.6444 74.2778 63.4864 74.3304 63.2757C74.3829 63.0123 74.3829 62.8016 74.3829 62.6436C74.3829 62.3275 74.2778 62.1695 74.1728 62.0641C73.9102 61.8008 73.3849 61.7481 73.1223 62.0115C72.9647 62.1695 72.8597 62.3275 72.8597 62.5382C72.8597 62.6963 72.8071 62.8016 72.7546 62.907C72.7021 62.9596 72.7021 63.0123 72.597 63.0123H70.1809C69.8132 63.0123 69.7081 62.907 69.7081 62.907C69.7081 62.907 69.6031 62.8016 69.6031 62.2222V60.2731C69.6031 60.1151 69.6031 60.0097 69.6556 60.0097C69.6556 60.0097 69.7607 59.9571 70.1809 59.9571H72.6496C72.7021 59.9571 72.7546 59.9571 72.8071 60.0097C72.8071 60.0097 72.9122 60.0624 73.0172 60.3785C73.1748 60.7472 73.2799 60.9579 73.4374 61.0633C73.595 61.1686 73.7526 61.2213 73.9627 61.2213C74.3829 61.2213 74.593 60.9579 74.593 60.5365C74.593 60.0097 74.593 59.5883 74.5405 59.3776C74.4879 59.1142 74.3829 58.9035 74.2778 58.7455C74.1203 58.5348 73.8576 58.4294 73.4374 58.4294H66.4516C66.189 58.4294 65.9789 58.4821 65.8213 58.6401C65.6112 58.8509 65.5587 59.0616 65.5587 59.2196C65.5587 59.483 65.6637 59.6937 65.8738 59.8517C66.0314 59.9571 66.294 60.0624 66.5566 60.0624C66.9768 60.0624 67.0819 60.1151 67.0819 60.1151C67.0819 60.1151 67.1344 60.1678 67.1869 60.4312C67.2395 60.6945 67.2395 61.274 67.2395 62.1695V70.4924C67.2395 70.7031 67.1869 70.8612 67.1344 70.9138C67.1344 70.9138 67.0294 71.0192 66.5041 71.0192C65.8738 71.0192 65.6112 71.3879 65.6112 71.7567C65.6112 71.9147 65.6637 72.2307 66.1364 72.4415C66.3991 72.5468 66.7667 72.5995 67.3445 72.5995H74.698C75.1182 72.5995 75.3283 72.5468 75.4859 72.3888C75.6435 72.2308 75.696 72.02 75.696 71.6513C75.696 71.5459 75.696 71.3879 75.6435 71.1245C75.696 70.7558 75.6435 70.5451 75.6435 70.3344Z" fill="white"/>
<path d="M89.3527 70.8083C89.09 70.7029 89.0375 70.6503 89.0375 70.7029C88.985 70.6503 88.7224 70.2289 87.6193 68.2798C86.7264 66.7522 86.0961 65.7513 85.781 65.2246C86.7264 64.8558 87.4092 64.4344 87.8294 63.9603C88.2496 63.4862 88.5123 62.8541 88.5123 62.1166C88.5123 61.0104 88.0921 60.0622 87.1991 59.3248C86.3587 58.64 85.2557 58.2712 83.9426 58.2712C83.5749 58.2712 83.1022 58.3239 82.4719 58.3766C81.684 58.4819 81.4739 58.4819 81.4214 58.4819C81.2638 58.4819 81.0012 58.4819 80.7385 58.4293C80.4234 58.3766 80.1608 58.3766 79.8981 58.3766C78.9002 58.3766 78.7951 58.9034 78.7951 59.1141C78.7951 59.3248 78.9002 59.8515 79.7931 59.9042C80.4234 59.9569 80.4234 60.1676 80.4234 60.273V70.6503C80.4234 70.6503 80.4234 70.7029 80.3709 70.7029C80.3183 70.7556 80.1608 70.8083 80.0557 70.8083C79.583 70.8083 79.3204 70.861 79.1628 70.9663C79.0052 71.0717 78.9002 71.2824 78.9002 71.5458C78.9002 71.8091 79.0052 72.4413 80.1082 72.4413C80.3709 72.4413 80.6335 72.3886 81.0537 72.2306C81.4214 72.0725 81.6315 72.0725 81.684 72.0725C81.789 72.0725 81.9991 72.1252 82.3668 72.2306C83.2072 72.5466 83.785 72.4939 84.1527 72.2306C84.3628 72.0725 84.4678 71.8618 84.4678 71.5984C84.4678 71.2824 84.3102 71.0717 84.1527 70.9663C83.9951 70.861 83.7325 70.7556 83.3123 70.7556C83.1022 70.7556 82.9446 70.7029 82.8395 70.6503C82.7345 70.5976 82.7345 70.5449 82.7345 70.4396V65.1719C82.787 65.2246 82.8395 65.2246 82.8921 65.2246C83.1547 65.3299 83.4173 65.5933 83.6799 66.0147C83.785 66.1201 84.1001 66.6995 84.7304 67.7004C86.0436 69.9128 86.8315 71.1244 87.0941 71.4404C87.2517 71.6511 87.5143 71.8091 87.987 72.0725C88.4597 72.3359 88.8274 72.4413 89.1951 72.4413C89.3527 72.4413 89.5628 72.3886 89.7729 72.2306C90.1405 72.0199 90.2456 71.7565 90.2456 71.5458C90.2456 71.3351 90.1931 71.177 90.088 71.019C89.8779 71.019 89.6678 70.9136 89.3527 70.8083ZM82.682 60.273C82.682 60.1149 82.682 60.0096 82.7345 59.9569C82.7345 59.9569 82.7345 59.9042 82.8395 59.8515C82.8921 59.7989 83.0496 59.7989 83.4173 59.7989C84.2052 59.7989 84.8355 60.0096 85.2557 60.4837C85.6759 60.9578 85.9385 61.4318 85.9385 61.8533C85.9385 62.5381 85.7284 63.0648 85.3607 63.3809C84.888 63.8023 84.3102 64.013 83.5749 63.9076C83.4173 63.9076 83.3123 63.855 83.2597 63.855C82.9971 63.855 82.8395 63.9076 82.682 64.013V60.273Z" fill="white"/>
<path d="M101.066 66.0676C100.488 65.3301 99.3848 64.3819 97.704 63.1704C96.706 62.4329 96.3384 62.0642 96.1808 61.8534C96.0232 61.5901 95.9182 61.3794 95.9182 61.116C95.9182 60.7999 96.1283 60.4838 96.4959 60.2205C96.9161 59.9044 97.3889 59.7464 97.9666 59.7464C98.4919 59.7464 98.8596 59.8517 99.2273 60.1678C99.5424 60.4312 99.7 60.7472 99.7 61.274C99.7 61.432 99.7525 61.6427 99.9626 61.8534C100.173 62.0642 100.383 62.1168 100.488 62.1168C100.645 62.1168 101.276 62.0641 101.223 61.116C101.223 60.9579 101.171 60.8526 101.171 60.7999C101.171 60.5892 101.171 60.4312 101.171 60.2731C101.171 60.1678 101.171 60.0624 101.171 60.0098C101.171 59.483 100.75 59.0089 99.9626 58.6928C99.2798 58.3768 98.5969 58.2188 97.9666 58.2188C96.8636 58.2188 95.8657 58.5348 95.0253 59.1669C94.1323 59.7991 93.7121 60.6419 93.7121 61.5901C93.7121 62.1695 93.8697 62.749 94.1323 63.1704C94.3949 63.6445 94.7101 64.0132 95.0778 64.3293C95.4454 64.6453 95.9182 65.014 96.5485 65.4881C98.0192 66.5417 98.9121 67.2791 99.2273 67.7532C99.5424 68.1746 99.7 68.5961 99.7 68.9121C99.7 69.5442 99.4899 70.0183 99.0171 70.3871C98.5444 70.8085 97.9666 70.9665 97.2838 70.9665C96.601 70.9665 96.0232 70.8085 95.6555 70.4397C95.2879 70.071 95.0778 69.5969 94.9727 68.9648C94.9202 68.0693 94.3424 67.9639 94.1323 67.9639C93.6596 67.9639 93.397 68.2273 93.397 68.6487C93.397 68.7014 93.397 68.8594 93.4495 69.0175C93.4495 69.1755 93.502 69.2809 93.502 69.4389C93.502 69.7549 93.502 70.071 93.502 70.2817C93.502 70.5451 93.4495 70.7031 93.4495 70.8085C93.4495 71.4933 94.2374 71.862 94.8677 72.1254C95.7081 72.4415 96.4959 72.5995 97.2838 72.5995C98.3868 72.5995 99.4899 72.2308 100.435 71.5986C101.433 70.9138 101.906 69.913 101.906 68.6487C101.959 67.7006 101.696 66.8577 101.066 66.0676Z" fill="white"/>
<path d="M94.815 85.2947H59.0979C58.9928 85.2947 58.8878 85.4 58.8878 85.5054V86.0321C58.8878 86.0848 58.8878 86.1375 58.9403 86.1902C58.9928 86.2429 59.0453 86.2429 59.0979 86.2429C62.9847 86.2429 67.8696 86.1902 72.5443 86.1375L83.6796 85.9795L94.815 85.7161C94.92 85.7161 95.0251 85.6107 95.0251 85.5054C95.0251 85.4 94.92 85.2947 94.815 85.2947Z" fill="white"/>
<path d="M41.4493 85.2947H5.73226C5.6272 85.2947 5.52216 85.4 5.52216 85.5054V85.5581C5.52216 85.6634 5.6272 85.7688 5.73226 85.7688L16.8676 86.0322L28.0029 86.1902C32.415 86.2429 36.8797 86.2429 41.4493 86.2955C41.5019 86.2955 41.5544 86.2955 41.6069 86.2429C41.6594 86.1902 41.6595 86.1375 41.6595 86.0848V85.5581C41.6069 85.4 41.5544 85.2947 41.4493 85.2947Z" fill="white"/>
<path d="M51.5343 86.1901C51.6393 85.9794 51.7444 85.716 51.7444 85.4526C51.7444 85.1893 51.6393 84.9259 51.5343 84.7152C52.7424 83.5036 53.9505 82.2394 55.106 80.8698C55.1585 80.8171 55.1585 80.6591 55.106 80.6064C55.0535 80.5537 54.8959 80.5537 54.8434 80.6064C53.5303 81.7653 52.2696 82.9769 51.009 84.1884C50.7989 84.0831 50.5363 83.9777 50.2737 83.9777C50.0111 83.9777 49.7484 84.0831 49.5383 84.1884C48.3303 82.9769 47.0697 81.7653 45.704 80.6064C45.6515 80.5537 45.4939 80.5537 45.4414 80.6064C45.3888 80.6591 45.3888 80.8171 45.4414 80.8698C46.5969 82.1867 47.805 83.4509 49.0131 84.7152C48.908 84.9259 48.803 85.1893 48.803 85.4526C48.803 85.716 48.908 85.9794 49.0131 86.1901C47.805 87.4017 46.5969 88.7186 45.4414 90.0355C45.3888 90.0882 45.3888 90.2462 45.4414 90.2989C45.4939 90.3516 45.5989 90.3516 45.704 90.2989C47.0171 89.14 48.2777 87.9285 49.5383 86.7169C49.7484 86.8222 50.0111 86.9276 50.2737 86.9276C50.5363 86.9276 50.7989 86.8222 51.009 86.7169C52.2171 87.9285 53.4777 89.14 54.8434 90.2989C54.8959 90.3516 54.9484 90.3516 54.9484 90.3516C55.0535 90.3516 55.1585 90.2462 55.1585 90.1409C55.1585 90.0882 55.106 90.0355 55.0535 89.9828C53.9505 88.6659 52.6899 87.4544 51.5343 86.1901ZM49.5383 85.4526C49.5383 85.0839 49.8535 84.7679 50.2212 84.7679C50.5888 84.7679 50.904 85.0839 50.904 85.4526C50.904 85.8214 50.5888 86.1374 50.2212 86.1374C49.8535 86.1901 49.5383 85.8741 49.5383 85.4526Z" fill="white"/>
</svg>
