<?xml version="1.0" encoding="UTF-8"?>
<svg xmlns="http://www.w3.org/2000/svg" xmlns:xlink="http://www.w3.org/1999/xlink" width="50pt" height="50pt" viewBox="0 0 50 50" version="1.1">
<g id="surface1">
<path style=" stroke:none;fill-rule:nonzero;fill:rgb(100%,100%,100%);fill-opacity:1;" d="M 43.347656 19.230469 L 13.816406 1.027344 C 11.679688 -0.289062 9.09375 -0.34375 6.90625 0.878906 C 4.714844 2.105469 3.40625 4.332031 3.40625 6.839844 L 3.40625 43.082031 C 3.40625 46.875 6.464844 49.980469 10.21875 50 C 10.230469 50 10.242188 50 10.25 50 C 11.425781 50 12.648438 49.632812 13.789062 48.933594 C 14.710938 48.375 15 47.175781 14.441406 46.253906 C 13.878906 45.335938 12.679688 45.046875 11.761719 45.605469 C 11.226562 45.933594 10.703125 46.101562 10.242188 46.101562 C 8.824219 46.09375 7.304688 44.878906 7.304688 43.082031 L 7.304688 6.839844 C 7.304688 5.765625 7.867188 4.808594 8.804688 4.285156 C 9.746094 3.757812 10.855469 3.78125 11.769531 4.347656 L 41.300781 22.550781 C 42.1875 23.097656 42.695312 24.007812 42.695312 25.050781 C 42.691406 26.09375 42.179688 27 41.289062 27.546875 L 19.9375 40.621094 C 19.019531 41.183594 18.730469 42.382812 19.292969 43.300781 C 19.855469 44.21875 21.054688 44.507812 21.972656 43.945312 L 43.320312 30.875 C 45.363281 29.625 46.589844 27.453125 46.59375 25.058594 C 46.597656 22.664062 45.382812 20.484375 43.347656 19.230469 Z M 43.347656 19.230469 "/>
</g>
</svg>
