<svg width="39" height="39" viewBox="0 0 39 39" fill="none" xmlns="http://www.w3.org/2000/svg">
<path d="M19.5005 0.0187973C11.5133 0.0187973 3.9287 -0.691149 1.03167 6.73801C-0.164975 9.80638 0.00880309 13.7913 0.00880309 19.4973C0.00880309 24.5042 -0.151776 29.2101 1.03167 32.2543C3.9221 39.6879 11.5683 38.9757 19.4961 38.9757C27.1445 38.9757 35.0305 39.7714 37.9627 32.2543C39.1615 29.1552 38.9856 25.2296 38.9856 19.4973C38.9856 11.8879 39.4057 6.97539 35.7124 3.28719C31.9729 -0.449372 26.9157 0.0187973 19.4917 0.0187973H19.5005ZM17.7539 3.52896C34.4146 3.50259 36.5351 1.6519 35.3648 27.3616C34.9491 36.4546 28.02 35.4568 19.5027 35.4568C3.97269 35.4568 3.52615 35.0128 3.52615 19.4885C3.52615 3.78393 4.75799 3.53776 17.7539 3.52457V3.52896ZM29.9051 6.76218C28.6139 6.76218 27.5668 7.80842 27.5668 9.09863C27.5668 10.3888 28.6139 11.4351 29.9051 11.4351C31.1964 11.4351 32.2434 10.3888 32.2434 9.09863C32.2434 7.80842 31.1964 6.76218 29.9051 6.76218V6.76218ZM19.5005 9.49427C13.9726 9.49427 9.49178 13.9737 9.49178 19.4973C9.49178 25.0208 13.9726 29.498 19.5005 29.498C25.0284 29.498 29.507 25.0208 29.507 19.4973C29.507 13.9737 25.0284 9.49427 19.5005 9.49427V9.49427ZM19.5005 13.0044C28.0904 13.0044 28.1014 25.9901 19.5005 25.9901C10.9128 25.9901 10.8996 13.0044 19.5005 13.0044Z" fill="white"/>
</svg>
