<svg width="64" height="64" viewBox="0 0 64 64" fill="none" xmlns="http://www.w3.org/2000/svg">
<g clip-path="url(#clip0)">
<path d="M27.0535 0.893661L25.277 0.0969834C24.721 -0.15253 24.068 0.0960179 23.8185 0.65201C23.7087 0.896558 23.6918 1.17269 23.7708 1.42883L27.3934 13.2002C30.6737 23.8939 30.1434 35.3941 25.8927 45.7404L24.9084 48.1316C24.6763 48.695 24.9448 49.34 25.5083 49.5722C25.6418 49.6273 25.7848 49.6555 25.9291 49.6554C26.0066 49.6555 26.0839 49.6474 26.1597 49.6311L28.6193 49.1037C37.0174 47.3167 45.7044 47.3851 54.0732 49.3045L55.4735 49.6278C56.0671 49.7652 56.66 49.3954 56.7973 48.8016C56.8135 48.7316 56.8229 48.6603 56.8252 48.5884C57.558 28.1059 45.7764 9.2316 27.0535 0.893661ZM28.1602 46.9454L27.7509 47.0337L27.9374 46.5813C32.3818 35.7611 32.936 23.7344 29.5053 12.5514L26.5967 3.11046C43.8123 10.9862 54.7956 28.2399 54.6448 47.1708L54.5731 47.1528C45.8885 45.1642 36.8749 45.0933 28.1602 46.9454Z" fill="#00C2FF"/>
<path d="M22.5923 6.00592L21.3697 3.86305C21.0672 3.33396 20.3932 3.15037 19.8641 3.45285C19.59 3.60954 19.3962 3.87616 19.3317 4.18526L17.18 14.5134C14.9644 25.1458 11.3843 35.4474 6.52856 45.1623L5.07975 48.0588C4.8072 48.6039 5.0283 49.2666 5.5734 49.5392C5.86388 49.6844 6.2036 49.6942 6.50207 49.5661C11.1588 47.581 16.4239 47.581 21.0806 49.5661C21.5937 49.7858 22.1901 49.5879 22.4698 49.1049C30.1522 35.7772 30.1988 19.377 22.5923 6.00592ZM21.0288 47.1694C16.9397 45.6555 12.4791 45.4617 8.27418 46.6155L8.5026 46.1454C13.4428 36.2616 17.0856 25.7808 19.3405 14.9636L20.8974 7.49445C27.7332 19.8242 27.7827 34.7947 21.0288 47.1694Z" fill="#00C2FF"/>
<path d="M60.7376 49.8314C60.5581 49.7157 60.349 49.6545 60.1355 49.6553H47.3247C43.289 49.6565 39.2664 50.1145 35.3337 51.0202L32.5751 51.6558C28.8069 52.5253 24.9523 52.9647 21.0851 52.9656H3.86048C3.25111 52.9656 2.75705 53.4596 2.75705 54.069C2.75705 54.2758 2.81512 54.4785 2.92477 54.6538L6.82099 60.8882C8.02552 62.8296 10.1506 64.0073 12.4352 63.9999H48.171C51.1903 64.009 54.0028 62.4674 55.6191 59.9172L61.0668 51.3568C61.397 50.8446 61.2497 50.1618 60.7376 49.8314ZM53.7566 58.7277C52.5453 60.6415 50.4359 61.7991 48.171 61.793H12.4352C10.9122 61.7977 9.49557 61.0126 8.69241 59.7186L5.84666 55.1724H21.0851C25.1207 55.1712 29.1433 54.7133 33.076 53.8075L35.8346 53.1719C39.6028 52.3024 43.4574 51.863 47.3247 51.8621H58.125L53.7566 58.7277Z" fill="#00C2FF"/>
</g>
<defs>
<clipPath id="clip0">
<rect width="64" height="64" fill="white"/>
</clipPath>
</defs>
</svg>
