<svg width="64" height="64" viewBox="0 0 64 64" fill="none" xmlns="http://www.w3.org/2000/svg">
<g clip-path="url(#clip0)">
<path d="M17.5475 36.9076C16.3533 34.7828 15.3549 32.5538 14.5646 30.2482C13.539 30.6465 12.4489 30.853 11.3486 30.8573C6.29913 30.8573 2.20574 26.7639 2.20574 21.7145C2.20574 16.665 6.29913 12.5716 11.3486 12.5716C12.0416 12.5736 12.7319 12.6565 13.4057 12.8185C13.6252 12.0771 13.8893 11.3496 14.1966 10.6402C13.2925 10.4061 12.3625 10.2871 11.4286 10.2859C6.91447 10.3031 2.8329 12.9743 1.01031 17.1042C0.341057 18.6012 -0.00327134 20.2232 2.34232e-05 21.863C0.0327105 26.4402 1.36004 30.9147 3.82859 34.7693C3.90631 34.8996 3.97602 34.9979 4.04917 35.1122L4.12917 35.2265C5.83987 37.8379 7.91276 40.1933 10.2857 42.2219V51.4287H8.00002C7.36884 51.4287 6.85717 51.9404 6.85717 52.5716C6.85717 53.2028 7.36884 53.7145 8.00002 53.7145H14.8572C15.4883 53.7145 16 53.2028 16 52.5716C16 51.9404 15.4883 51.4287 14.8572 51.4287H12.5715V42.223C14.4167 40.6355 16.085 38.8534 17.5475 36.9076Z" fill="#00C2FF"/>
<path d="M47.6252 11.3498C44.2977 3.97676 36.269 -0.0668717 28.3639 1.64885C20.4589 3.36458 14.8289 10.3727 14.8572 18.4618C14.9078 25.204 16.8681 31.7938 20.5109 37.4675C20.6252 37.6755 20.7395 37.8332 20.8447 37.9943L20.9498 38.1521C23.6727 42.2946 27.0139 45.9958 30.8572 49.1269V60.5715H27.4287C26.7975 60.5715 26.2858 61.0832 26.2858 61.7143C26.2858 62.3455 26.7975 62.8572 27.4287 62.8572H36.5715C37.2027 62.8572 37.7144 62.3455 37.7144 61.7143C37.7144 61.0832 37.2027 60.5715 36.5715 60.5715H33.1429V49.1269C36.9845 45.997 40.3239 42.2969 43.0447 38.1555L43.1589 37.9898C43.2664 37.8286 43.3738 37.6709 43.4721 37.4983C47.1238 31.8164 49.0901 25.2158 49.1429 18.4618C49.1518 16.0098 48.6342 13.5845 47.6252 11.3498V11.3498ZM32.0001 32.0001C24.4259 32.0001 18.2858 25.86 18.2858 18.2858C18.2858 10.7116 24.4259 4.57149 32.0001 4.57149C39.5743 4.57149 45.7144 10.7116 45.7144 18.2858C45.7062 25.8566 39.5709 31.9919 32.0001 32.0001V32.0001Z" fill="#00C2FF"/>
<path d="M62.9908 17.1053C61.1679 12.975 57.086 10.3034 52.5714 10.2859C51.6356 10.2867 50.7036 10.4057 49.7977 10.6402C50.1016 11.3392 50.363 12.0559 50.5805 12.7865C51.2079 12.6465 51.8486 12.5745 52.4914 12.5716C57.5408 12.5716 61.6342 16.665 61.6342 21.7145C61.6342 26.7639 57.5408 30.8573 52.4914 30.8573C51.4414 30.8537 50.4002 30.6665 49.4148 30.3042C48.6261 32.5892 47.6347 34.7991 46.4525 36.9076C47.9142 38.8547 49.5826 40.6377 51.4285 42.2253V51.4287H49.1428C48.5116 51.4287 47.9999 51.9404 47.9999 52.5716C47.9999 53.2028 48.5116 53.7145 49.1428 53.7145H55.9999C56.6311 53.7145 57.1428 53.2028 57.1428 52.5716C57.1428 51.9404 56.6311 51.4287 55.9999 51.4287H53.7142V42.2219C56.0844 40.1981 58.155 37.8477 59.8639 35.2413L59.9508 35.111C60.0239 34.9967 60.0936 34.8996 60.1622 34.7842C62.6358 30.9259 63.9663 26.446 63.9999 21.863C64.0032 20.2237 63.6593 18.6022 62.9908 17.1053V17.1053Z" fill="#00C2FF"/>
</g>
<defs>
<clipPath id="clip0">
<rect width="64" height="64" fill="white"/>
</clipPath>
</defs>
</svg>
