<svg width="64" height="64" viewBox="0 0 64 64" fill="none" xmlns="http://www.w3.org/2000/svg">
<path d="M57.75 21.5C58.0788 21.5 58.4013 21.3663 58.6336 21.1336C58.8663 20.9013 59 20.5788 59 20.25C59 19.9212 58.8663 19.5987 58.6336 19.3662C58.4013 19.1337 58.0788 19 57.75 19C57.4212 19 57.0987 19.1336 56.8662 19.3662C56.6337 19.5989 56.5 19.9212 56.5 20.25C56.5 20.5788 56.6336 20.9013 56.8662 21.1336C57.0987 21.3663 57.4212 21.5 57.75 21.5Z" fill="#00C2FF"/>
<path d="M24.5626 55.4585H24.5439C23.8537 55.4585 23.2939 56.0182 23.2939 56.7085C23.2939 57.3987 23.8537 57.9585 24.5439 57.9585H24.5626C25.2528 57.9585 25.8126 57.3987 25.8126 56.7085C25.8126 56.0182 25.2528 55.4585 24.5626 55.4585Z" fill="#00C2FF"/>
<path d="M64 50.1989V8.75C64 6.68225 62.3177 5 60.25 5H55.9683V4.25C55.9683 1.9065 54.0618 0 51.7183 0C49.3748 0 47.4683 1.9065 47.4683 4.25V5H36.2341V4.25C36.2341 1.9065 34.3276 0 31.9841 0C29.6406 0 27.7341 1.9065 27.7341 4.25V5H16.5V4.25C16.5 1.9065 14.5935 0 12.25 0C9.9065 0 8 1.9065 8 4.25V5H3.75C1.68225 5 0 6.68225 0 8.75V60.25C0 62.3177 1.68225 64 3.75 64H50.1989C50.5439 64 50.8562 63.8601 51.0824 63.6341C51.0825 63.634 51.0826 63.634 51.0827 63.6339L63.6339 51.0827C63.86 50.8565 64 50.544 64 50.1989ZM49.9683 4.25C49.9683 3.285 50.7533 2.5 51.7183 2.5C52.6833 2.5 53.4683 3.285 53.4683 4.25V10.375C53.4683 11.34 52.6833 12.125 51.7183 12.125C50.7533 12.125 49.9683 11.34 49.9683 10.375V4.25ZM30.2341 4.25C30.2341 3.285 31.0191 2.5 31.9841 2.5C32.9491 2.5 33.7341 3.285 33.7341 4.25V10.375C33.7341 11.34 32.9491 12.125 31.9841 12.125C31.0191 12.125 30.2341 11.34 30.2341 10.375V4.25ZM10.5 4.25C10.5 3.285 11.285 2.5 12.25 2.5C13.215 2.5 14 3.285 14 4.25V10.375C14 11.34 13.215 12.125 12.25 12.125C11.285 12.125 10.5 11.34 10.5 10.375V4.25ZM2.5 60.25V57.9584H19.5625C20.2527 57.9584 20.8125 57.3986 20.8125 56.7084C20.8125 56.0181 20.2527 55.4584 19.5625 55.4584H2.5V21.5H52.75C53.4402 21.5 54 20.9402 54 20.25C54 19.5598 53.4402 19 52.75 19H2.5V8.75C2.5 8.06075 3.06075 7.5 3.75 7.5H8V10.375C8 12.7185 9.9065 14.625 12.25 14.625C14.5935 14.625 16.5 12.7185 16.5 10.375V7.5H27.7341V10.375C27.7341 12.7185 29.6406 14.625 31.9841 14.625C34.3276 14.625 36.2341 12.7185 36.2341 10.375V7.5H47.4683V10.375C47.4683 12.7185 49.3748 14.625 51.7183 14.625C54.0618 14.625 55.9683 12.7185 55.9683 10.375V7.5H60.25C60.9392 7.5 61.5 8.06075 61.5 8.75V48.9489H52.6989C50.6311 48.9489 48.9489 50.6311 48.9489 52.6989V61.5H3.75C3.06075 61.5 2.5 60.9392 2.5 60.25ZM51.4489 59.7321V52.6987C51.4489 52.0095 52.0096 51.4487 52.6989 51.4487H59.7323L51.4489 59.7321Z" fill="#00C2FF"/>
<path d="M24.5077 43.8141V39.5V35.1859C24.5077 33.8427 23.4149 32.75 22.0718 32.75H16.6577C15.9674 32.75 15.4077 33.3098 15.4077 34C15.4077 34.6902 15.9674 35.25 16.6577 35.25H22.0077V38.25H16.6577C15.9674 38.25 15.4077 38.8098 15.4077 39.5C15.4077 40.1902 15.9674 40.75 16.6577 40.75H22.0077V43.75H16.6577C15.9674 43.75 15.4077 44.3098 15.4077 45C15.4077 45.6902 15.9674 46.25 16.6577 46.25H22.0718C23.4148 46.25 24.5077 45.1573 24.5077 43.8141Z" fill="#00C2FF"/>
<path d="M35.3574 35.25C36.0477 35.25 36.6074 34.6902 36.6074 34C36.6074 33.3098 36.0477 32.75 35.3574 32.75H29.9433C28.6002 32.75 27.5074 33.8427 27.5074 35.1859V39.5V43.8141C27.5074 45.1573 28.6002 46.25 29.9433 46.25H34.1714C35.5146 46.25 36.6073 45.1573 36.6073 43.8141V40.686C36.6073 39.3429 35.5146 38.2501 34.1714 38.2501H32.3324H30.0074V35.2501H35.3574V35.25ZM32.3324 40.75H34.1074V43.75H30.0074V40.75H32.3324Z" fill="#00C2FF"/>
<path d="M46.2716 38.25H44.1576H42.1076V35.25H47.4576C48.1479 35.25 48.7076 34.6902 48.7076 34C48.7076 33.3098 48.1479 32.75 47.4576 32.75H42.0435C40.7004 32.75 39.6076 33.8427 39.6076 35.1859V38.314C39.6076 39.6571 40.7004 40.7499 42.0435 40.7499H44.1576H46.2075V43.7499H40.8575C40.1672 43.7499 39.6075 44.3096 39.6075 44.9999C39.6075 45.6901 40.1672 46.2499 40.8575 46.2499H46.2716C47.6147 46.2499 48.7075 45.1571 48.7075 43.814V40.6859C48.7075 39.3427 47.6147 38.25 46.2716 38.25Z" fill="#00C2FF"/>
</svg>
