<svg width="105" height="64" viewBox="0 0 105 64" fill="none" xmlns="http://www.w3.org/2000/svg">
    <g clip-path="url(#clip0)">
        <path d="M45.0535 0.893661L43.277 0.0969834C42.721 -0.15253 42.068 0.0960179 41.8185 0.65201C41.7087 0.896558 41.6918 1.17269 41.7708 1.42883L45.3934 13.2002C48.6737 23.8939 48.1434 35.3941 43.8927 45.7404L42.9084 48.1316C42.6763 48.695 42.9448 49.34 43.5083 49.5722C43.6418 49.6273 43.7848 49.6555 43.9291 49.6554C44.0066 49.6555 44.0839 49.6474 44.1597 49.6311L46.6193 49.1037C55.0174 47.3167 63.7044 47.3851 72.0732 49.3045L73.4735 49.6278C74.0671 49.7652 74.66 49.3954 74.7973 48.8016C74.8135 48.7316 74.8229 48.6603 74.8252 48.5884C75.558 28.1059 63.7764 9.2316 45.0535 0.893661ZM46.1602 46.9454L45.7509 47.0337L45.9374 46.5813C50.3818 35.7611 50.936 23.7344 47.5053 12.5514L44.5967 3.11046C61.8123 10.9862 72.7956 28.2399 72.6448 47.1708L72.5731 47.1528C63.8885 45.1642 54.8749 45.0933 46.1602 46.9454Z" fill="#00C2FF"/>
        <path d="M40.5923 6.00592L39.3697 3.86305C39.0672 3.33396 38.3932 3.15037 37.8641 3.45285C37.59 3.60954 37.3962 3.87616 37.3317 4.18526L35.18 14.5134C32.9644 25.1458 29.3843 35.4474 24.5286 45.1623L23.0798 48.0588C22.8072 48.6039 23.0283 49.2666 23.5734 49.5392C23.8639 49.6844 24.2036 49.6942 24.5021 49.5661C29.1588 47.581 34.4239 47.581 39.0806 49.5661C39.5937 49.7858 40.1901 49.5879 40.4698 49.1049C48.1522 35.7772 48.1988 19.377 40.5923 6.00592ZM39.0288 47.1694C34.9397 45.6555 30.4791 45.4617 26.2742 46.6155L26.5026 46.1454C31.4428 36.2616 35.0856 25.7808 37.3405 14.9636L38.8974 7.49445C45.7332 19.8242 45.7827 34.7947 39.0288 47.1694Z" fill="#00C2FF"/>
        <path d="M78.7376 49.8314C78.5581 49.7157 78.349 49.6545 78.1355 49.6553H65.3247C61.289 49.6565 57.2664 50.1145 53.3337 51.0202L50.5751 51.6558C46.8069 52.5253 42.9523 52.9647 39.0851 52.9656H21.8605C21.2511 52.9656 20.757 53.4596 20.757 54.069C20.757 54.2758 20.8151 54.4785 20.9248 54.6538L24.821 60.8882C26.0255 62.8296 28.1506 64.0073 30.4352 63.9999H66.171C69.1903 64.009 72.0028 62.4674 73.6191 59.9172L79.0668 51.3568C79.397 50.8446 79.2497 50.1618 78.7376 49.8314ZM71.7566 58.7277C70.5453 60.6415 68.4359 61.7991 66.171 61.793H30.4352C28.9122 61.7977 27.4956 61.0126 26.6924 59.7186L23.8467 55.1724H39.0851C43.1207 55.1712 47.1433 54.7133 51.076 53.8075L53.8346 53.1719C57.6028 52.3024 61.4574 51.863 65.3247 51.8621H76.125L71.7566 58.7277Z" fill="#00C2FF"/>
    </g>
    <g clip-path="url(#clip1)">
        <path d="M89.9905 29.363L89.2688 29.0394C89.0429 28.938 88.7777 29.039 88.6763 29.2649C88.6317 29.3642 88.6248 29.4764 88.6569 29.5805L90.1286 34.3626C91.4612 38.7069 91.2458 43.3789 89.5189 47.5821L89.1191 48.5535C89.0248 48.7824 89.1339 49.0444 89.3628 49.1387C89.417 49.1611 89.4751 49.1726 89.5337 49.1725C89.5652 49.1726 89.5966 49.1693 89.6274 49.1626L90.6266 48.9484C94.0383 48.2224 97.5674 48.2502 100.967 49.03L101.536 49.1613C101.777 49.2171 102.018 49.0669 102.074 48.8257C102.08 48.7972 102.084 48.7682 102.085 48.739C102.383 40.418 97.5967 32.7503 89.9905 29.363ZM90.4401 48.0716L90.2738 48.1074L90.3496 47.9236C92.1551 43.528 92.3803 38.6421 90.9866 34.099L89.8049 30.2636C96.7988 33.4631 101.261 40.4724 101.199 48.1631L101.17 48.1558C97.6422 47.3479 93.9804 47.3191 90.4401 48.0716Z" fill="#00C2FF"/>
        <path d="M88.1781 31.4399L87.6814 30.5694C87.5585 30.3544 87.2847 30.2798 87.0697 30.4027C86.9584 30.4664 86.8797 30.5747 86.8535 30.7002L85.9793 34.896C85.0793 39.2155 83.6249 43.4005 81.6522 47.3472L81.0636 48.5239C80.9529 48.7453 81.0427 49.0146 81.2642 49.1253C81.3822 49.1843 81.5202 49.1883 81.6414 49.1362C83.5332 48.3298 85.6722 48.3298 87.564 49.1362C87.7724 49.2255 88.0147 49.1451 88.1283 48.9488C91.2493 43.5345 91.2682 36.8719 88.1781 31.4399ZM87.5429 48.1626C85.8817 47.5475 84.0696 47.4688 82.3614 47.9375L82.4541 47.7466C84.4611 43.7313 85.941 39.4734 86.857 35.0789L87.4896 32.0446C90.2666 37.0536 90.2867 43.1353 87.5429 48.1626Z" fill="#00C2FF"/>
        <path d="M103.675 49.2439C103.602 49.1969 103.517 49.172 103.43 49.1724H98.2257C96.5862 49.1729 94.952 49.3589 93.3543 49.7269L92.2337 49.9851C90.7028 50.3383 89.1369 50.5168 87.5658 50.5172H80.5684C80.3208 50.5172 80.1201 50.7179 80.1201 50.9654C80.1201 51.0494 80.1437 51.1318 80.1882 51.203L81.7711 53.7357C82.2604 54.5244 83.1237 55.0029 84.0519 54.9999H98.5695C99.7961 55.0036 100.939 54.3773 101.595 53.3413L103.808 49.8636C103.943 49.6555 103.883 49.3781 103.675 49.2439ZM100.839 52.858C100.347 53.6355 99.4896 54.1058 98.5695 54.1033H84.0519C83.4331 54.1052 82.8576 53.7863 82.5313 53.2606L81.3752 51.4137H87.5658C89.2053 51.4132 90.8395 51.2272 92.4372 50.8592L93.5579 50.601C95.0887 50.2478 96.6546 50.0692 98.2257 50.0689H102.613L100.839 52.858Z" fill="#00C2FF"/>
    </g>
    <g clip-path="url(#clip2)">
        <path d="M9.29967 27.3072L8.68899 27.0333C8.49787 26.9476 8.27342 27.033 8.18764 27.2241C8.1499 27.3082 8.14407 27.4031 8.17124 27.4912L9.4165 31.5376C10.5441 35.2135 10.3618 39.1667 8.90064 42.7233L8.5623 43.5452C8.48251 43.7389 8.57482 43.9606 8.7685 44.0405C8.8144 44.0594 8.86357 44.0691 8.91316 44.069C8.93981 44.0691 8.96636 44.0663 8.99243 44.0607L9.8379 43.8794C12.7247 43.2651 15.7109 43.2886 18.5877 43.9484L19.069 44.0596C19.2731 44.1068 19.4769 43.9797 19.5241 43.7756C19.5297 43.7515 19.5329 43.727 19.5337 43.7023C19.7856 36.6614 15.7357 30.1734 9.29967 27.3072ZM9.68011 43.1375L9.53939 43.1678L9.60349 43.0123C11.1313 39.2929 11.3218 35.1587 10.1425 31.3145L9.14264 28.0692C15.0605 30.7765 18.836 36.7075 18.7842 43.2149L18.7595 43.2088C15.7742 42.5252 12.6758 42.5008 9.68011 43.1375Z" fill="#00C2FF"/>
        <path d="M7.76612 29.0644L7.34585 28.3278C7.24187 28.1459 7.01016 28.0828 6.82829 28.1868C6.73408 28.2407 6.66746 28.3323 6.64527 28.4386L5.90563 31.9889C5.14403 35.6438 3.91338 39.1849 2.2442 42.5244L1.74617 43.5201C1.65248 43.7075 1.72849 43.9353 1.91586 44.029C2.01572 44.0789 2.13249 44.0823 2.2351 44.0382C3.83586 43.3559 5.64571 43.3559 7.24647 44.0382C7.42285 44.1138 7.62786 44.0457 7.72401 43.8797C10.3648 39.2983 10.3809 33.6607 7.76612 29.0644ZM7.22864 43.2144C5.82303 42.694 4.28969 42.6274 2.84426 43.024L2.92278 42.8624C4.62097 39.4648 5.8732 35.862 6.64831 32.1436L7.1835 29.5761C9.5333 33.8145 9.55032 38.9606 7.22864 43.2144Z" fill="#00C2FF"/>
        <path d="M20.8785 44.1296C20.8168 44.0899 20.745 44.0688 20.6716 44.0691H16.2678C14.8806 44.0695 13.4978 44.2269 12.1459 44.5383L11.1977 44.7568C9.90235 45.0557 8.57734 45.2067 7.24797 45.207H1.32703C1.11756 45.207 0.947723 45.3768 0.947723 45.5863C0.947723 45.6574 0.967684 45.7271 1.00538 45.7873L2.3447 47.9304C2.75876 48.5978 3.48925 49.0026 4.2746 49.0001H16.5588C17.5966 49.0032 18.5634 48.4732 19.1191 47.5966L20.9917 44.654C21.1052 44.4779 21.0546 44.2432 20.8785 44.1296ZM18.4788 47.1877C18.0624 47.8456 17.3373 48.2435 16.5588 48.2414H4.2746C3.75107 48.2431 3.26409 47.9732 2.988 47.5284L2.00978 45.9656H7.24797C8.63523 45.9652 10.018 45.8078 11.3699 45.4964L12.3181 45.2779C13.6135 44.979 14.9385 44.828 16.2678 44.8277H19.9805L18.4788 47.1877Z" fill="#00C2FF"/>
    </g>
    <defs>
        <clipPath id="clip0">
            <rect x="18" width="64" height="64" fill="white"/>
        </clipPath>
        <clipPath id="clip1">
            <rect x="79" y="29" width="26" height="26" fill="white"/>
        </clipPath>
        <clipPath id="clip2">
            <rect y="27" width="22" height="22" fill="white"/>
        </clipPath>
    </defs>
</svg>