<svg width="64" height="64" viewBox="0 0 64 64" fill="none" xmlns="http://www.w3.org/2000/svg">
<path d="M56.465 29.6575C54.2873 28.5688 50.2042 28.5562 50.0314 28.5562C49.5137 28.5562 49.0939 28.9759 49.0939 29.4937C49.0939 30.0114 49.5137 30.4312 50.0314 30.4312C51.085 30.4313 54.1442 30.5935 55.6265 31.3347C55.7612 31.402 55.9042 31.4338 56.045 31.4338C56.3889 31.4338 56.72 31.2438 56.8843 30.9154C57.1159 30.4523 56.9282 29.8892 56.465 29.6575Z" fill="#00C2FF"/>
<path d="M61.139 43.0052L57.2671 41.8989C57.1 41.8512 56.9832 41.6964 56.9832 41.5225V40.2302C57.2982 40.0119 57.5987 39.7677 57.8796 39.495C59.2409 38.174 59.9905 36.4022 59.9905 34.5057V32.7223L60.3649 31.9737C60.7758 31.1518 60.9929 30.2317 60.9929 29.3129V24.4817C60.9929 23.9639 60.5731 23.5442 60.0554 23.5442H51.0337C47.7532 23.5442 45.0843 26.2132 45.0843 29.4937V29.5495C45.0843 30.3135 45.2649 31.0787 45.6065 31.7619L46.0866 32.7222V34.2534C46.0866 36.6802 47.2825 38.8576 49.0939 40.1678L49.0941 41.5223C49.0941 41.7312 49.0941 41.8177 48.32 42.0389L46.4308 42.5787L40.9656 40.5914C40.9853 40.3335 40.8982 40.0713 40.7101 39.8737L38.9637 38.0389V34.9589C39.1484 34.8068 39.3304 34.6505 39.5067 34.4853C41.7099 32.4203 42.9734 29.5048 42.9734 26.4864V24.0267C43.6386 22.5791 43.9757 21.0472 43.9757 19.4696V9.4458C43.9757 8.92805 43.556 8.5083 43.0382 8.5083H29.0046C24.0659 8.5083 20.048 12.5263 20.048 17.4649V19.4698C20.048 21.0474 20.3851 22.5793 21.0504 24.0269V26.1433C21.0504 29.6478 22.6086 32.8051 25.06 34.8866V38.0391L23.3136 39.8738C23.1255 40.0714 23.0385 40.3337 23.0581 40.5915L17.29 42.6889C16.872 42.8409 16.4836 43.0468 16.131 43.2962L15.2253 42.8433C17.9215 41.6697 18.7756 40.019 18.8166 39.937C18.9486 39.6732 18.9486 39.3624 18.8166 39.0985C18.1408 37.7468 18.0589 35.2692 17.9931 33.2784C17.9713 32.6157 17.9505 31.9895 17.9109 31.432C17.5913 26.9353 14.1727 23.5442 9.959 23.5442C5.74525 23.5442 2.32662 26.9352 2.00712 31.432C1.9675 31.9897 1.94675 32.6158 1.92488 33.2787C1.85913 35.2693 1.77713 37.7467 1.10137 39.0984C0.969375 39.3623 0.969375 39.673 1.10137 39.9369C1.14237 40.0189 1.99475 41.6662 4.69637 42.8412L2.1805 44.099C0.8355 44.772 0 46.1239 0 47.6275V54.5537C0 55.0714 0.41975 55.4912 0.9375 55.4912C1.45525 55.4912 1.875 55.0714 1.875 54.5537V47.6275C1.875 46.8385 2.31338 46.1292 3.019 45.7763L6.15188 44.2099L7.24162 45.2455C8.00362 45.9697 8.98112 46.3316 9.959 46.3316C10.9366 46.3316 11.9146 45.9694 12.6764 45.2455L13.766 44.21L14.7875 44.7208C14.3065 45.4904 14.0335 46.3929 14.0335 47.3383V54.5539C14.0335 55.0717 14.4532 55.4914 14.971 55.4914C15.4887 55.4914 15.9085 55.0717 15.9085 54.5539V47.3383C15.9085 46.0513 16.7211 44.8911 17.9307 44.4512L24.0123 42.2398L26.5439 46.0374C26.8675 46.5229 27.3861 46.8343 27.9667 46.8918C28.0315 46.8982 28.0959 46.9013 28.1601 46.9013C28.6724 46.9013 29.163 46.6997 29.5298 46.333L31.0742 44.7886V54.5541C31.0742 55.0718 31.494 55.4916 32.0117 55.4916C32.5295 55.4916 32.9492 55.0718 32.9492 54.5541V44.7886L34.4938 46.333C34.8604 46.6998 35.351 46.9014 35.8634 46.9014C35.9275 46.9014 35.992 46.8983 36.0566 46.8919C36.6374 46.8344 37.156 46.523 37.4796 46.0375L40.0114 42.2401L46.0928 44.4514C47.3023 44.8913 48.115 46.0516 48.115 47.3386V54.5542C48.115 55.0719 48.5348 55.4917 49.0525 55.4917C49.5703 55.4917 49.99 55.0719 49.99 54.5542V47.3386C49.99 46.0351 49.4721 44.8125 48.6034 43.9084L48.835 43.8423C49.0686 43.7756 49.3874 43.6842 49.7074 43.5273L52.101 45.9209V54.5542C52.101 55.0719 52.5208 55.4917 53.0385 55.4917C53.5563 55.4917 53.976 55.0719 53.976 54.5542V45.9209L56.353 43.5439C56.4794 43.6082 56.6121 43.6624 56.7519 43.7023L60.6239 44.8085C61.5076 45.061 62.125 45.8794 62.125 46.7987V54.5542C62.125 55.0719 62.5447 55.4917 63.0625 55.4917C63.5803 55.4917 64 55.0719 64 54.5542V46.7987C64 45.0464 62.8235 43.4865 61.139 43.0052ZM6.01438 41.3493C4.26075 40.7183 3.38113 39.8771 3.00563 39.4177C3.26163 38.7484 3.42762 37.9819 3.54 37.1728C4.057 38.4124 4.92288 39.4707 6.01438 40.2257V41.3493ZM11.385 43.8866C10.5854 44.6463 9.33275 44.6462 8.53337 43.8864L7.6615 43.0579C7.80862 42.7823 7.8895 42.4698 7.8895 42.1424V41.1432C8.5435 41.3475 9.23875 41.4578 9.95925 41.4578C10.6789 41.4578 11.3738 41.347 12.0289 41.1438L12.0288 42.1423C12.0288 42.4698 12.1095 42.7824 12.2568 43.0582L11.385 43.8866ZM9.9595 39.5828C7.16 39.5828 4.88263 37.3053 4.88263 34.5059C4.88263 33.9882 4.46288 33.5684 3.94513 33.5684C3.89263 33.5684 3.84137 33.5738 3.79125 33.5822C3.794 33.5016 3.79663 33.4208 3.79938 33.3409C3.82025 32.6963 3.84038 32.0874 3.8775 31.5652C3.99725 29.8807 4.67037 28.3284 5.77287 27.1942C6.88525 26.0497 8.372 25.4194 9.95925 25.4194C11.5465 25.4194 13.0331 26.0497 14.1456 27.1942C15.2481 28.3284 15.9213 29.8807 16.041 31.5652C16.078 32.0873 16.0982 32.696 16.1195 33.3405C16.1214 33.3959 16.1233 33.4521 16.1251 33.5078C15.1051 31.9363 13.5299 30.7782 11.4945 30.1242C9.61413 29.5201 7.99688 29.5574 7.92863 29.5592C7.68313 29.5661 7.45012 29.6688 7.27975 29.8456L5.58825 31.5998C5.22888 31.9726 5.23962 32.5661 5.61237 32.9254C5.98512 33.2848 6.57863 33.2739 6.938 32.9013L8.3455 31.4417C9.55762 31.5009 13.4572 31.9544 14.9739 35.294C14.5923 37.755 12.477 39.5828 9.9595 39.5828ZM13.9036 41.3524L13.9038 40.2343C14.9944 39.4834 15.8615 38.4272 16.3789 37.1782C16.4913 37.9854 16.6571 38.7502 16.9126 39.4179C16.5392 39.8729 15.6555 40.7217 13.9036 41.3524ZM22.9254 26.1432V23.8172C22.9254 23.6761 22.8935 23.5367 22.8321 23.4096C22.2289 22.1603 21.923 20.8348 21.923 19.4698V17.4651C21.923 13.5602 25.0999 10.3834 29.0046 10.3834H42.1007V19.4699C42.1007 20.8349 41.7949 22.1604 41.1916 23.4097C41.1302 23.5368 41.0984 23.6762 41.0984 23.8173V26.4867C41.0984 29.0256 40.0777 31.3804 38.2245 33.1175C37.9931 33.3343 37.753 33.5375 37.5047 33.7269C37.4992 33.7307 37.494 33.7348 37.4886 33.7387C35.7525 35.0568 33.626 35.6974 31.4053 35.5536C26.6501 35.2457 22.9254 31.1122 22.9254 26.1432ZM28.204 45.007C28.1975 45.0135 28.1824 45.0289 28.1518 45.0257C28.1213 45.0227 28.1092 45.0048 28.1041 44.9971L25.1885 40.6236L26.1268 39.6377L30.5499 42.661L28.204 45.007ZM32.0119 41.3892L26.935 37.9189V36.1689C28.2486 36.8791 29.7195 37.3232 31.2839 37.4244C31.531 37.4404 31.7766 37.4483 32.0215 37.4483C33.8141 37.4483 35.5394 37.0198 37.0887 36.2064V37.9189L32.0119 41.3892ZM35.9196 44.9973C35.9145 45.005 35.9025 45.0229 35.872 45.0259C35.8414 45.0298 35.8264 45.0137 35.8198 45.0073L33.4739 42.6614L37.897 39.6379L38.8354 40.6238L35.9196 44.9973ZM53.0385 44.2063L50.911 42.0789C50.9481 41.9103 50.9691 41.7257 50.969 41.522L50.9689 41.1264C51.5593 41.3202 52.1815 41.4352 52.8254 41.4544C52.8976 41.4567 52.9692 41.4577 53.0412 41.4577C53.7527 41.4577 54.4472 41.3502 55.1082 41.1451V41.5225C55.1082 41.7095 55.1317 41.8928 55.176 42.0689L53.0385 44.2063ZM56.5739 38.1496C55.5803 39.1138 54.2676 39.623 52.8817 39.5803C50.1687 39.4989 47.9616 37.1093 47.9616 34.2537V32.501C47.9616 32.3554 47.9278 32.2119 47.8626 32.0818L47.2835 30.9235C47.0714 30.4992 46.9593 30.0242 46.9593 29.5497V29.4938C46.9593 27.2471 48.7871 25.4193 51.0337 25.4193H59.1179V29.313C59.1179 29.9423 58.9691 30.5724 58.6878 31.1353L58.2145 32.0818C58.1494 32.212 58.1155 32.3554 58.1155 32.501V34.5058C58.1155 35.8908 57.568 37.1848 56.5739 38.1496Z" fill="#00C2FF"/>
<path d="M59.0528 47.6018C58.535 47.6018 58.1153 48.0216 58.1153 48.5393V54.5537C58.1153 55.0714 58.535 55.4912 59.0528 55.4912C59.5705 55.4912 59.9903 55.0714 59.9903 54.5537V48.5393C59.9903 48.0217 59.5705 47.6018 59.0528 47.6018Z" fill="#00C2FF"/>
<path d="M4.94721 48.8411C4.42946 48.8411 4.00971 49.2608 4.00971 49.7786V54.5537C4.00971 55.0714 4.42946 55.4912 4.94721 55.4912C5.46496 55.4912 5.88471 55.0714 5.88471 54.5537V49.7786C5.88471 49.2609 5.46496 48.8411 4.94721 48.8411Z" fill="#00C2FF"/>
<path d="M39.6916 19.8094C36.1458 16.2637 28.7272 16.9416 25.7019 17.3976C24.749 17.5412 24.0575 18.3476 24.0575 19.3149V21.4747C24.0575 21.9924 24.4773 22.4122 24.995 22.4122C25.5128 22.4122 25.9325 21.9924 25.9325 21.4747V19.3148C25.9325 19.2829 25.9535 19.2557 25.9815 19.2514C27.1899 19.0693 29.5878 18.7883 32.0722 18.9539C34.9957 19.1486 37.1132 19.8824 38.3658 21.1352C38.7319 21.5013 39.3256 21.5013 39.6916 21.1352C40.0577 20.7691 40.0577 20.1754 39.6916 19.8094Z" fill="#00C2FF"/>
<path d="M20.9855 49.6067C20.4677 49.6067 20.048 50.0264 20.048 50.5442V54.5538C20.048 55.0716 20.4677 55.4913 20.9855 55.4913C21.5032 55.4913 21.923 55.0716 21.923 54.5538V50.5442C21.923 50.0266 21.5032 49.6067 20.9855 49.6067Z" fill="#00C2FF"/>
<path d="M43.0383 49.6067C42.5206 49.6067 42.1008 50.0264 42.1008 50.5442V54.5538C42.1008 55.0716 42.5206 55.4913 43.0383 55.4913C43.5561 55.4913 43.9758 55.0716 43.9758 54.5538V50.5442C43.9758 50.0266 43.5561 49.6067 43.0383 49.6067Z" fill="#00C2FF"/>
</svg>
